<svg width="16" height="18" viewBox="0 0 16 18" fill="none" xmlns="http://www.w3.org/2000/svg">
<path d="M14.5 9C14.5 6.6875 13.25 4.5625 11.25 3.375C9.21875 2.21875 6.75 2.21875 4.75 3.375C2.71875 4.5625 1.5 6.6875 1.5 9C1.5 11.3438 2.71875 13.4688 4.75 14.6562C6.75 15.8125 9.21875 15.8125 11.25 14.6562C13.25 13.4688 14.5 11.3438 14.5 9ZM0 9C0 6.15625 1.5 3.53125 4 2.09375C6.46875 0.65625 9.5 0.65625 12 2.09375C14.4688 3.53125 16 6.15625 16 9C16 11.875 14.4688 14.5 12 15.9375C9.5 17.375 6.46875 17.375 4 15.9375C1.5 14.5 0 11.875 0 9ZM5.28125 6.1875C5.53125 5.46875 6.1875 5 6.9375 5H8.75C9.84375 5 10.75 5.90625 10.75 7C10.75 7.6875 10.3438 8.34375 9.75 8.6875L8.75 9.28125C8.71875 9.6875 8.40625 10 8 10C7.5625 10 7.25 9.6875 7.25 9.25V8.84375C7.25 8.5625 7.375 8.3125 7.625 8.1875L9 7.40625C9.15625 7.3125 9.25 7.15625 9.25 7C9.25 6.71875 9.03125 6.53125 8.75 6.53125H6.9375C6.84375 6.53125 6.75 6.59375 6.71875 6.6875L6.6875 6.71875C6.5625 7.125 6.125 7.3125 5.75 7.1875C5.34375 7.03125 5.15625 6.59375 5.28125 6.21875V6.1875ZM7 12C7 11.4688 7.4375 11 8 11C8.53125 11 9 11.4688 9 12C9 12.5625 8.53125 13 8 13C7.4375 13 7 12.5625 7 12Z" fill="black" fill-opacity="0.72"/>
</svg>
