<svg width="14" height="22" viewBox="0 0 14 22" fill="none" xmlns="http://www.w3.org/2000/svg">
<g clip-path="url(#clip0_29301_25430)">
<path d="M7 16.4375C7.19141 16.4375 7.73828 16.2461 8.28516 15.125C8.53125 14.6328 8.75 14.0586 8.88672 13.375H5.08594C5.25 14.0586 5.44141 14.6328 5.6875 15.125C6.26172 16.2461 6.78125 16.4375 7 16.4375ZM4.86719 12.0625H9.10547C9.16016 11.6523 9.1875 11.2148 9.1875 10.75C9.1875 10.3125 9.16016 9.875 9.10547 9.4375H4.86719C4.8125 9.875 4.8125 10.3125 4.8125 10.75C4.8125 11.2148 4.8125 11.6523 4.86719 12.0625ZM5.08594 8.125H8.88672C8.75 7.46875 8.53125 6.89453 8.28516 6.40234C7.73828 5.28125 7.19141 5.0625 7 5.0625C6.78125 5.0625 6.26172 5.28125 5.6875 6.40234C5.44141 6.89453 5.25 7.46875 5.08594 8.125ZM10.418 9.4375C10.4727 9.875 10.4727 10.3125 10.4727 10.75C10.4727 11.2148 10.4727 11.6523 10.418 12.0625H12.5234C12.6328 11.6523 12.6875 11.2148 12.6875 10.75C12.6875 10.3125 12.6328 9.875 12.5234 9.4375H10.418ZM12.0312 8.125C11.457 7.00391 10.5 6.10156 9.35156 5.58203C9.73438 6.29297 10.0352 7.16797 10.2266 8.125H12.0312ZM3.74609 8.125C3.9375 7.16797 4.23828 6.29297 4.62109 5.58203C3.47266 6.10156 2.51562 7.00391 1.94141 8.125H3.74609ZM1.44922 9.4375C1.36719 9.875 1.3125 10.3125 1.3125 10.75C1.3125 11.2148 1.33984 11.6523 1.44922 12.0625H3.55469C3.5 11.6523 3.5 11.2148 3.5 10.75C3.5 10.3125 3.5 9.875 3.55469 9.4375H1.44922ZM9.35156 15.9453C10.5 15.4258 11.457 14.5234 12.0312 13.375H10.2266C10.0352 14.3594 9.73438 15.2344 9.35156 15.9453ZM4.62109 15.9453C4.23828 15.2344 3.9375 14.3594 3.74609 13.375H1.94141C2.51562 14.5234 3.47266 15.4258 4.62109 15.9453ZM7 17.75C4.48438 17.75 2.1875 16.4375 0.929688 14.25C-0.328125 12.0898 -0.328125 9.4375 0.929688 7.25C2.1875 5.08984 4.48438 3.75 7 3.75C9.48828 3.75 11.7852 5.08984 13.043 7.25C14.3008 9.4375 14.3008 12.0898 13.043 14.25C11.7852 16.4375 9.48828 17.75 7 17.75Z" fill="#181C25"/>
</g>
<defs>
<clipPath id="clip0_29301_25430">
<rect width="14" height="22" fill="white"/>
</clipPath>
</defs>
</svg>
