<svg width="24" height="24" viewBox="0 0 24 24" fill="none" xmlns="http://www.w3.org/2000/svg">
<path d="M12 5C9.46875 5 7.1875 6.34375 5.9375 8.5C4.65625 10.6875 4.65625 13.3438 5.9375 15.5C7.1875 17.6875 9.46875 19 12 19C14.5 19 16.7812 17.6875 18.0312 15.5C19.3125 13.3438 19.3125 10.6875 18.0312 8.5C16.7812 6.34375 14.5 5 12 5ZM12 20C9.125 20 6.5 18.5 5.0625 16C3.625 13.5312 3.625 10.5 5.0625 8C6.5 5.53125 9.125 4 12 4C14.8438 4 17.4688 5.53125 18.9062 8C20.3438 10.5 20.3438 13.5312 18.9062 16C17.4688 18.5 14.8438 20 12 20ZM10.5 15H11.5V12H10.75C10.4688 12 10.25 11.7812 10.25 11.5C10.25 11.25 10.4688 11 10.75 11H12C12.25 11 12.5 11.25 12.5 11.5V15H13.5C13.75 15 14 15.25 14 15.5C14 15.7812 13.75 16 13.5 16H10.5C10.2188 16 10 15.7812 10 15.5C10 15.25 10.2188 15 10.5 15ZM12 9.75C11.5625 9.75 11.25 9.4375 11.25 9C11.25 8.59375 11.5625 8.25 12 8.25C12.4062 8.25 12.75 8.59375 12.75 9C12.75 9.4375 12.4062 9.75 12 9.75Z" fill="black"/>
</svg>
