<svg width="32" height="32" viewBox="0 0 32 32" fill="none" xmlns="http://www.w3.org/2000/svg">
<rect width="32" height="32" rx="16" fill="white"/>
<path fill-rule="evenodd" clip-rule="evenodd" d="M15.3233 0C12.2418 0.177583 9.39631 1.22718 7.02649 2.90324H25.4905C23.1204 1.22718 20.2749 0.177583 17.1933 0H16.701H15.3233ZM3.89772 5.80575C3.16408 6.6973 2.52841 7.67097 2 8.70872L21.2395 8.70892H30.5169C29.9883 7.67125 29.3531 6.6975 28.6189 5.80595L21.5132 5.80575H3.89772ZM0.06604 14.5439C0.153399 13.547 0.333382 12.5773 0.5962 11.6414H31.382C31.6448 12.5771 31.8248 13.547 31.9124 14.5439H0.06604ZM0.0720825 17.4476C0.164707 18.445 0.351306 19.4147 0.61939 20.3501H31.3591C31.6274 19.4147 31.8137 18.4448 31.9064 17.4476H0.0720825ZM3.69638 26.1563C2.95363 25.2657 2.30891 24.292 1.7724 23.2533H21.9523L30.2059 23.2534C29.6695 24.292 29.0247 25.2658 28.282 26.1563H20.4979L3.69638 26.1563ZM15.3126 31.9449L15.3611 31.9467L15.4096 31.9485C15.602 31.9554 15.7949 31.96 15.989 31.96C19.3788 31.96 22.5196 30.886 25.1064 29.06L19.9682 29.06H6.87213C9.28543 30.7638 12.1822 31.8124 15.3126 31.9449Z" fill="#F44336"/>
<path d="M15.6585 0.00830078C7.46492 0.174982 0.786771 6.50123 0.0680542 14.5483H15.6587V0.00830078H15.6585Z" fill="#283991"/>
<path d="M3.19935 9.03996L3.44293 9.78843H4.23212L3.59368 10.2512L3.83752 11.0002L3.19935 10.5372L2.56137 11.0002L2.80475 10.2512L2.1665 9.78843H2.9557L3.19935 9.03996Z" fill="#EFEFEF"/>
<path d="M3.19935 11.6842L3.44293 12.4332H4.23212L3.59368 12.896L3.83752 13.645L3.19935 13.1819L2.56137 13.645L2.80475 12.896L2.1665 12.4332H2.9557L3.19935 11.6842Z" fill="#EFEFEF"/>
<path d="M5.84964 5.07257L6.09329 5.8213H6.88222L6.24397 6.28439L6.48762 7.03286L5.84964 6.57031L5.2114 7.03286L5.45504 6.28439L4.81653 5.8213H5.60573L5.84964 5.07257Z" fill="#EFEFEF"/>
<path d="M5.84964 7.71732L6.09329 8.46606H6.88222L6.24397 8.92861L6.48762 9.67761L5.84964 9.21506L5.2114 9.67761L5.45504 8.92861L4.81653 8.46606H5.60573L5.84964 7.71732Z" fill="#EFEFEF"/>
<path d="M5.84964 10.3621L6.09329 11.1111H6.88222L6.24397 11.5734L6.48762 12.3224L5.84964 11.8593L5.2114 12.3224L5.45504 11.5734L4.81653 11.1111H5.60573L5.84964 10.3621Z" fill="#EFEFEF"/>
<path d="M1.18719 12.3224L0.943345 11.5734L1.58159 11.1108H0.792864L0.775177 11.0562C0.68856 11.3235 0.610316 11.594 0.538147 11.8676L0.549286 11.8593L1.18719 12.3224Z" fill="#EFEFEF"/>
<path d="M2.56135 8.3555L3.19933 7.89248L3.83757 8.3555L3.59372 7.6065L4.23197 7.14348H3.44277L3.19913 6.39501L2.95548 7.14348H2.66464C2.61064 7.22513 2.55838 7.30725 2.50586 7.39011L2.8048 7.6065L2.56135 8.3555Z" fill="#EFEFEF"/>
<path d="M5.84966 3.92556L6.48764 4.38811L6.24399 3.63964L6.88197 3.17662H6.42627C6.03923 3.46536 5.66583 3.77095 5.30708 4.09337L5.21088 4.38811L5.84966 3.92556Z" fill="#EFEFEF"/>
<path d="M7.86176 3.066L8.5 2.60298L9.13797 3.066L8.89433 2.317L9.5323 1.85445H8.74338L8.7103 1.75366C8.44295 1.88995 8.17838 2.03176 7.91981 2.18266L8.10513 2.31693L7.86176 3.066Z" fill="#EFEFEF"/>
<path d="M8.49997 3.75047L8.74361 4.49873H9.53254L8.89429 4.96175L9.13794 5.71075L8.49997 5.24766L7.86172 5.71075L8.10537 4.96175L7.46692 4.49873H8.25605L8.49997 3.75047Z" fill="#EFEFEF"/>
<path d="M8.49997 6.39522L8.74361 7.14348H9.53254L8.89429 7.6065L9.13794 8.3555L8.49997 7.89241L7.86172 8.3555L8.10537 7.6065L7.46692 7.14348H8.25605L8.49997 6.39522Z" fill="#EFEFEF"/>
<path d="M8.49997 9.03996L8.74361 9.78843H9.53254L8.89429 10.2512L9.13794 11.0002L8.49997 10.5372L7.86172 11.0002L8.10537 10.2512L7.46692 9.78843H8.25605L8.49997 9.03996Z" fill="#EFEFEF"/>
<path d="M8.49997 11.6842L8.74361 12.4332H9.53254L8.89429 12.896L9.13794 13.645L8.49997 13.1819L7.86172 13.645L8.10537 12.896L7.46692 12.4332H8.25605L8.49997 11.6842Z" fill="#EFEFEF"/>
<path d="M11.1503 2.42783L11.3939 3.17656H12.1829L11.5449 3.63965L11.7883 4.38811L11.1503 3.92556L10.5118 4.38811L10.7557 3.63965L10.1172 3.17656H10.9064L11.1503 2.42783Z" fill="#EFEFEF"/>
<path d="M11.1503 5.07257L11.3939 5.8213H12.1829L11.5449 6.28439L11.7883 7.03286L11.1503 6.57031L10.5118 7.03286L10.7557 6.28439L10.1172 5.8213H10.9064L11.1503 5.07257Z" fill="#EFEFEF"/>
<path d="M11.1503 7.71732L11.3939 8.46606H12.1829L11.5449 8.92861L11.7883 9.67761L11.1503 9.21506L10.5118 9.67761L10.7557 8.92861L10.1172 8.46606H10.9064L11.1503 7.71732Z" fill="#EFEFEF"/>
<path d="M11.1503 10.3621L11.3939 11.1111H12.1829L11.5449 11.5734L11.7883 12.3224L11.1503 11.8593L10.5118 12.3224L10.7557 11.5734L10.1172 11.1111H10.9064L11.1503 10.3621Z" fill="#EFEFEF"/>
<path d="M13.8006 1.10571L14.0443 1.85445H14.8332L14.195 2.317L14.4386 3.066L13.8006 2.60291L13.1622 3.066L13.406 2.317L12.7676 1.85445H13.5565L13.8006 1.10571Z" fill="#EFEFEF"/>
<path d="M13.8006 3.75047L14.0443 4.49873H14.8332L14.195 4.96175L14.4386 5.71075L13.8006 5.24766L13.1622 5.71075L13.406 4.96175L12.7676 4.49873H13.5565L13.8006 3.75047Z" fill="#EFEFEF"/>
<path d="M13.8006 6.39522L14.0443 7.14348H14.8332L14.195 7.6065L14.4386 8.3555L13.8006 7.89241L13.1622 8.3555L13.406 7.6065L12.7676 7.14348H13.5565L13.8006 6.39522Z" fill="#EFEFEF"/>
<path d="M13.8006 9.03996L14.0443 9.78843H14.8332L14.195 10.2512L14.4386 11.0002L13.8006 10.5372L13.1622 11.0002L13.406 10.2512L12.7676 9.78843H13.5565L13.8006 9.03996Z" fill="#EFEFEF"/>
<path d="M13.8006 11.6842L14.0443 12.4332H14.8332L14.195 12.896L14.4386 13.645L13.8006 13.1819L13.1622 13.645L13.406 12.896L12.7676 12.4332H13.5565L13.8006 11.6842Z" fill="#EFEFEF"/>
</svg>
